<svg width="32" height="32" viewBox="0 0 32 32" fill="none" xmlns="http://www.w3.org/2000/svg">
<path d="M9.25599 4H22.744C25.6468 4 28 6.35318 28 9.25599V22.744C28 25.6468 25.6468 28 22.744 28H9.25599C6.35318 28 4 25.6468 4 22.744V9.25599C4 6.35318 6.35318 4 9.25599 4Z" fill="url(#paint0_linear_6_2797)"/>
<path d="M11.692 21.4199L11.6942 21.4206L10.8737 22.8419C10.5741 23.3607 9.91072 23.5384 9.39193 23.2389C8.87316 22.9394 8.6954 22.276 8.99491 21.7572L9.5994 20.7102L9.6574 20.6097C9.76101 20.4608 10.0167 20.2038 10.5281 20.2521C10.5281 20.2521 11.7315 20.3827 11.8186 21.0082C11.8186 21.0082 11.8305 21.2141 11.692 21.4199ZM23.3304 17.7898H20.7716C20.5973 17.7782 20.5212 17.7159 20.4913 17.6798L20.4894 17.6764L17.7503 12.9321L17.7468 12.9345L17.5825 12.699C17.3133 12.2873 16.8857 13.3403 16.8857 13.3403C16.3753 14.5136 16.9582 15.8476 17.1614 16.2508L20.9659 22.8404C21.2654 23.3592 21.9288 23.537 22.4476 23.2374C22.9664 22.9379 23.1441 22.2745 22.8446 21.7557L21.8933 20.1079C21.8749 20.068 21.8428 19.9596 22.0379 19.9592H23.3304C23.9295 19.9592 24.4151 19.4736 24.4151 18.8745C24.4151 18.2755 23.9295 17.7898 23.3304 17.7898ZM18.3603 19.2644C18.3603 19.2644 18.4969 19.9592 17.9684 19.9592H17.4399V19.9592H8.50916C7.91011 19.9592 7.42448 19.4736 7.42448 18.8745C7.42448 18.2755 7.91011 17.7898 8.50916 17.7898H10.941C11.3337 17.7671 11.4267 17.5404 11.4267 17.5404L11.4289 17.5415L14.6033 12.0433L14.6023 12.0431C14.6602 11.9368 14.612 11.8365 14.6036 11.8206L13.5553 10.0048C13.2558 9.48604 13.4335 8.82264 13.9523 8.52313C14.4711 8.22359 15.1345 8.40135 15.434 8.92015L15.9202 9.7623L16.4056 8.92164C16.7051 8.40285 17.3685 8.22509 17.8873 8.52463C18.4061 8.82416 18.5838 9.48756 18.2843 10.0063L13.867 17.6573C13.8477 17.7038 13.8418 17.7769 13.9855 17.7898H16.6259L16.6264 17.8155C16.6264 17.8155 18.1525 17.8393 18.3603 19.2644Z" fill="white"/>
<defs>
<linearGradient id="paint0_linear_6_2797" x1="16" y1="4" x2="16" y2="28" gradientUnits="userSpaceOnUse">
<stop stop-color="#17C9FB"/>
<stop offset="1" stop-color="#1A74E8"/>
</linearGradient>
</defs>
</svg>
