<svg width="24" height="24" viewBox="0 0 24 24" fill="none" xmlns="http://www.w3.org/2000/svg">
<path d="M22 12C22 6.47757 17.5224 2 12 2C6.47757 2 2 6.47757 2 12C2 16.9909 5.65631 21.1281 10.4376 21.8791V14.8913H7.89791V12H10.4376V9.79637C10.4376 7.2904 11.9311 5.90522 14.2149 5.90522C15.309 5.90522 16.4537 6.10069 16.4537 6.10069V8.56167H15.1922C13.9505 8.56167 13.5624 9.3323 13.5624 10.124V12H16.3355L15.8926 14.8913H13.5624V21.8791C18.3437 21.1295 22 16.9923 22 12Z" fill="#0B0014"/>
<path d="M15.8931 14.8912L16.3361 11.9999H13.5629V10.124C13.5629 9.33364 13.9496 8.5616 15.1928 8.5616H16.4542V6.10062C16.4542 6.10062 15.3095 5.90515 14.2154 5.90515C11.9316 5.90515 10.4382 7.28892 10.4382 9.79631V11.9999H7.89844V14.8912H10.4382V21.879C10.9472 21.9592 11.469 21.9999 12.0005 21.9999C12.5321 21.9999 13.0538 21.9578 13.5629 21.879V14.8912H15.8931Z" fill="#FEFEFE"/>
</svg>
