<svg width="32" height="32" viewBox="0 0 32 32" fill="none" xmlns="http://www.w3.org/2000/svg">
<path d="M18.7815 11.3262L6.1248 4.09229C5.96576 3.99994 5.76567 4.00508 5.61176 4.09742C5.45272 4.18977 5.35524 4.35394 5.35524 4.53864C5.35524 4.53864 5.36037 5.20559 5.3655 6.30349L14.5848 15.5228L18.7815 11.3262Z" fill="url(#paint0_linear_6_2833)"/>
<path d="M5.36565 6.30362C5.38104 10.2643 5.42721 19.8785 5.44773 24.6652L14.5901 15.5229L5.36565 6.30362Z" fill="url(#paint1_linear_6_2833)"/>
<path d="M26.0255 15.4663L18.7814 11.3261L14.5796 15.5228L19.3201 20.2632L26.0307 16.3539C26.1897 16.2615 26.2872 16.0922 26.2872 15.9127C26.2872 15.728 26.1846 15.5587 26.0255 15.4663Z" fill="url(#paint2_linear_6_2833)"/>
<path d="M5.44263 24.6651C5.45289 26.3735 5.45802 27.4663 5.45802 27.4663C5.45802 27.651 5.5555 27.8203 5.71454 27.9075C5.87358 27.9998 6.06854 27.9998 6.22758 27.9075L19.3255 20.2684L14.585 15.528L5.44263 24.6651Z" fill="url(#paint3_linear_6_2833)"/>
<defs>
<linearGradient id="paint0_linear_6_2833" x1="5.35524" y1="9.77647" x2="18.7839" y2="9.77647" gradientUnits="userSpaceOnUse">
<stop stop-color="#63BE6B"/>
<stop offset="0.506" stop-color="#5BBC6A"/>
<stop offset="1" stop-color="#4AB96A"/>
</linearGradient>
<linearGradient id="paint1_linear_6_2833" x1="5.36318" y1="15.4866" x2="14.5848" y2="15.4866" gradientUnits="userSpaceOnUse">
<stop stop-color="#3EC6F2"/>
<stop offset="1" stop-color="#45AFE3"/>
</linearGradient>
<linearGradient id="paint2_linear_6_2833" x1="14.5845" y1="15.798" x2="26.2859" y2="15.798" gradientUnits="userSpaceOnUse">
<stop stop-color="#FAA51A"/>
<stop offset="0.387" stop-color="#FAB716"/>
<stop offset="0.741" stop-color="#FAC412"/>
<stop offset="1" stop-color="#FAC80F"/>
</linearGradient>
<linearGradient id="paint3_linear_6_2833" x1="5.44488" y1="21.7522" x2="19.3253" y2="21.7522" gradientUnits="userSpaceOnUse">
<stop stop-color="#EC3B50"/>
<stop offset="1" stop-color="#E7515B"/>
</linearGradient>
</defs>
</svg>
