<svg width="24" height="24" viewBox="0 0 24 24" fill="none" xmlns="http://www.w3.org/2000/svg">
<path d="M3.67188 10.87C3.67188 8.34981 3.67188 7.08969 4.16235 6.12709C4.59378 5.28036 5.28219 4.59194 6.12892 4.16051C7.09152 3.67004 8.35164 3.67004 10.8719 3.67004H13.1419C15.6621 3.67004 16.9222 3.67004 17.8848 4.16051C18.7316 4.59194 19.42 5.28036 19.8514 6.12709C20.3419 7.08969 20.3419 8.34981 20.3419 10.87V13.14C20.3419 15.6603 20.3419 16.9204 19.8514 17.883C19.42 18.7297 18.7316 19.4181 17.8848 19.8496C16.9222 20.34 15.6621 20.34 13.1419 20.34H10.8719C8.35164 20.34 7.09152 20.34 6.12892 19.8496C5.28219 19.4181 4.59378 18.7297 4.16235 17.883C3.67188 16.9204 3.67188 15.6603 3.67188 13.14V10.87Z" fill="url(#paint0_radial_218_70)"/>
<path d="M3.67188 10.87C3.67188 8.34981 3.67188 7.08969 4.16235 6.12709C4.59378 5.28036 5.28219 4.59194 6.12892 4.16051C7.09152 3.67004 8.35164 3.67004 10.8719 3.67004H13.1419C15.6621 3.67004 16.9222 3.67004 17.8848 4.16051C18.7316 4.59194 19.42 5.28036 19.8514 6.12709C20.3419 7.08969 20.3419 8.34981 20.3419 10.87V13.14C20.3419 15.6603 20.3419 16.9204 19.8514 17.883C19.42 18.7297 18.7316 19.4181 17.8848 19.8496C16.9222 20.34 15.6621 20.34 13.1419 20.34H10.8719C8.35164 20.34 7.09152 20.34 6.12892 19.8496C5.28219 19.4181 4.59378 18.7297 4.16235 17.883C3.67188 16.9204 3.67188 15.6603 3.67188 13.14V10.87Z" fill="#0B0014"/>
<path d="M12.0009 6.1665C10.4166 6.1665 10.2178 6.17343 9.59557 6.20175C8.97456 6.23018 8.55066 6.3285 8.17976 6.47275C7.79609 6.62175 7.47063 6.82105 7.14639 7.14541C6.82191 7.46965 6.6226 7.7951 6.47312 8.17864C6.3285 8.54966 6.23007 8.97367 6.20211 9.59444C6.17428 10.2167 6.16699 10.4156 6.16699 11.9998C6.16699 13.5841 6.17404 13.7823 6.20224 14.4045C6.2308 15.0255 6.32911 15.4494 6.47325 15.8203C6.62236 16.204 6.82167 16.5294 7.14603 16.8537C7.47015 17.1781 7.7956 17.3779 8.17903 17.5269C8.55018 17.6712 8.97419 17.7695 9.59508 17.7979C10.2173 17.8262 10.416 17.8332 12.0001 17.8332C13.5845 17.8332 13.7827 17.8262 14.405 17.7979C15.026 17.7695 15.4504 17.6712 15.8215 17.5269C16.2051 17.3779 16.53 17.1781 16.8541 16.8537C17.1786 16.5294 17.3779 16.204 17.5274 15.8204C17.6708 15.4494 17.7693 15.0254 17.7984 14.4046C17.8264 13.7824 17.8337 13.5841 17.8337 11.9998C17.8337 10.4156 17.8264 10.2168 17.7984 9.59456C17.7693 8.97355 17.6708 8.54966 17.5274 8.17876C17.3779 7.7951 17.1786 7.46965 16.8541 7.14541C16.5297 6.82093 16.2052 6.62163 15.8211 6.47275C15.4493 6.3285 15.0251 6.23018 14.4041 6.20175C13.7819 6.17343 13.5838 6.1665 11.9991 6.1665H12.0009ZM11.4776 7.21772C11.6329 7.21748 11.8062 7.21772 12.0009 7.21772C13.5584 7.21772 13.743 7.22331 14.3581 7.25126C14.9268 7.27727 15.2355 7.3723 15.4411 7.45215C15.7133 7.55788 15.9074 7.68426 16.1115 7.88843C16.3156 8.0926 16.442 8.28704 16.548 8.55926C16.6278 8.76465 16.723 9.07333 16.7489 9.64208C16.7768 10.257 16.7829 10.4417 16.7829 11.9985C16.7829 13.5553 16.7768 13.74 16.7489 14.3549C16.7229 14.9237 16.6278 15.2324 16.548 15.4377C16.4423 15.71 16.3156 15.9038 16.1115 16.1078C15.9073 16.312 15.7135 16.4384 15.4411 16.5441C15.2357 16.6243 14.9268 16.7191 14.3581 16.7451C13.7431 16.7731 13.5584 16.7792 12.0009 16.7792C10.4432 16.7792 10.2586 16.7731 9.6437 16.7451C9.07494 16.7189 8.76626 16.6238 8.56051 16.544C8.28828 16.4383 8.09384 16.3119 7.88967 16.1077C7.6855 15.9036 7.55911 15.7096 7.45313 15.4373C7.37329 15.2319 7.27813 14.9232 7.25225 14.3544C7.2243 13.7395 7.2187 13.5548 7.2187 11.997C7.2187 10.4393 7.2243 10.2555 7.25225 9.64062C7.27825 9.07187 7.37329 8.76319 7.45313 8.55756C7.55886 8.28534 7.6855 8.0909 7.88967 7.88673C8.09384 7.68256 8.28828 7.55617 8.56051 7.4502C8.76613 7.36999 9.07494 7.2752 9.6437 7.24907C10.1818 7.22477 10.3904 7.21748 11.4776 7.21626V7.21772ZM15.1147 8.1863C14.7282 8.1863 14.4147 8.49947 14.4147 8.88605C14.4147 9.27251 14.7282 9.58605 15.1147 9.58605C15.5012 9.58605 15.8147 9.27251 15.8147 8.88605C15.8147 8.49959 15.5012 8.18605 15.1147 8.18605V8.1863ZM12.0009 9.00418C10.3465 9.00418 9.00518 10.3455 9.00518 11.9998C9.00518 13.6542 10.3465 14.9949 12.0009 14.9949C13.6552 14.9949 14.9961 13.6542 14.9961 11.9998C14.9961 10.3455 13.6551 9.00418 12.0008 9.00418H12.0009ZM12.0009 10.0554C13.0747 10.0554 13.9453 10.9259 13.9453 11.9998C13.9453 13.0737 13.0747 13.9443 12.0009 13.9443C10.9269 13.9443 10.0564 13.0737 10.0564 11.9998C10.0564 10.9259 10.9269 10.0554 12.0009 10.0554V10.0554Z" fill="white"/>
<defs>
<radialGradient id="paint0_radial_218_70" cx="0" cy="0" r="1" gradientUnits="userSpaceOnUse" gradientTransform="translate(8.09986 21.624) rotate(-90) scale(16.5212 15.366)">
<stop stop-color="#FFDD55"/>
<stop offset="0.1" stop-color="#FFDD55"/>
<stop offset="0.5" stop-color="#FF543E"/>
<stop offset="1" stop-color="#C837AB"/>
</radialGradient>
</defs>
</svg>
