<svg width="24" height="24" viewBox="0 0 24 24" fill="none" xmlns="http://www.w3.org/2000/svg">
<path d="M3 4.32024C3 3.61139 3.59583 3.03601 4.33031 3.03601H19.6697C20.4045 3.03601 21 3.61139 21 4.32024V19.68C21 20.3891 20.4045 20.964 19.6697 20.964H4.33031C3.5959 20.964 3 20.3891 3 19.6802V4.32003V4.32024Z" fill="#0B0014"/>
<path d="M8.47046 18.0393V9.96798H5.77693V18.0393H8.47074H8.47046ZM7.12426 8.86617C8.06335 8.86617 8.648 8.24639 8.648 7.47183C8.63042 6.67963 8.06335 6.07715 7.14212 6.07715C6.22025 6.07715 5.61816 6.67963 5.61816 7.47176C5.61816 8.24632 6.2026 8.8661 7.10661 8.8661H7.12405L7.12426 8.86617ZM9.96137 18.0393H12.6547V13.5324C12.6547 13.2915 12.6723 13.05 12.7434 12.8779C12.938 12.3957 13.3812 11.8966 14.1255 11.8966C15.0999 11.8966 15.4899 12.6367 15.4899 13.7218V18.0393H18.1831V13.4115C18.1831 10.9324 16.8545 9.77876 15.0824 9.77876C13.6296 9.77876 12.9915 10.5876 12.637 11.1384H12.6549V9.96826H9.96151C9.99666 10.7254 9.9613 18.0396 9.9613 18.0396L9.96137 18.0393Z" fill="white"/>
</svg>
